<svg width="68" height="68" viewBox="0 0 68 68" fill="none" xmlns="http://www.w3.org/2000/svg">
<path d="M53.0682 15.3283L49.4415 18.1617L33.9999 29.6367L18.5582 18.0483L14.9315 15.215C14.0772 14.5082 13.0342 14.0676 11.9318 13.9478C10.8295 13.828 9.71623 14.0342 8.72995 14.5409C7.74367 15.0476 6.92772 15.8326 6.38319 16.7985C5.83866 17.7644 5.58949 18.8689 5.66653 19.975V52.8133C5.66653 53.8353 6.0725 54.8154 6.79514 55.5381C7.51778 56.2607 8.4979 56.6667 9.51986 56.6667H18.5582V34.7933L33.9999 46.3817L49.4415 34.7933V56.6667H58.4799C59.5018 56.6667 60.4819 56.2607 61.2046 55.5381C61.9272 54.8154 62.3332 53.8353 62.3332 52.8133V19.975C62.3864 18.8784 62.1199 17.79 61.5661 16.842C61.0123 15.894 60.195 15.1273 59.2136 14.6351C58.2322 14.1429 57.129 13.9464 56.038 14.0695C54.947 14.1925 53.9153 14.6299 53.0682 15.3283Z" fill="#D38B36"/>
</svg>
