<svg width="98" height="114" viewBox="0 0 98 114" fill="none" xmlns="http://www.w3.org/2000/svg">
<path d="M77.75 18.375C73.4777 13.4976 71.1232 7.23395 71.125 0.75H51.8125V78.25C51.6635 82.4439 49.8929 86.4164 46.8735 89.3309C43.8541 92.2453 39.8216 93.8744 35.625 93.875C26.75 93.875 19.375 86.625 19.375 77.625C19.375 66.875 29.75 58.8125 40.4375 62.125V42.375C18.875 39.5 0 56.25 0 77.625C0 98.4375 17.25 113.25 35.5625 113.25C55.1875 113.25 71.125 97.3125 71.125 77.625V38.3125C78.9562 43.9366 88.3585 46.954 98 46.9375V27.625C98 27.625 86.25 28.1875 77.75 18.375Z" fill="#CF944F"/>
</svg>
