<svg width="132" height="101" viewBox="0 0 132 101" fill="none" xmlns="http://www.w3.org/2000/svg">
<path d="M20.5625 8.31248C28.875 4.43748 37.875 1.62498 47.25 -1.76871e-05C47.3322 -0.00264646 47.414 0.0127791 47.4896 0.0451746C47.5651 0.0775701 47.6327 0.126149 47.6875 0.187484C48.8125 2.24998 50.125 4.93748 51 6.99998C60.9438 5.49998 71.0562 5.49998 81 6.99998C81.875 4.87498 83.1875 2.24998 84.375 0.187484C84.4375 0.0624836 84.625 -1.76871e-05 84.8125 -1.76871e-05C94.1875 1.62498 103.125 4.43748 111.5 8.31248C111.563 8.31248 111.625 8.37498 111.687 8.43748C128.687 33.875 133.375 58.625 131.062 83.125C131.062 83.25 131 83.375 130.875 83.4375C119.625 91.6875 108.812 96.6875 98.125 100C97.9375 100.062 97.75 100 97.6875 99.875C95.1875 96.4375 92.9375 92.8125 91 89C90.875 88.75 91 88.5 91.25 88.4375C94.8125 87.0625 98.1875 85.4375 101.5 83.5625C101.75 83.4375 101.75 83.0625 101.562 82.875C100.875 82.375 100.188 81.8125 99.5 81.3125C99.375 81.1875 99.1875 81.1875 99.0625 81.25C77.5625 91.0625 54.375 91.0625 33.125 81.25C33 81.1875 32.8125 81.1875 32.6875 81.3125C32 81.875 31.3125 82.375 30.625 82.9375C30.375 83.125 30.375 83.5 30.6875 83.625C33.9375 85.5625 37.375 87.125 40.9375 88.5C41.1875 88.5625 41.25 88.875 41.1875 89.0625C39.1875 92.875 36.9375 96.5 34.5 99.9375C34.3125 100 34.125 100.062 33.9375 100C23.1875 96.6875 12.375 91.6875 1.12501 83.4375C1.00001 83.375 0.937506 83.25 0.937506 83.125C-1.81249 54.8125 5.50001 30.25 20.3125 8.43748C20.375 8.37498 20.4375 8.31248 20.5625 8.31248ZM87.75 68.1875C94.1875 68.1875 99.5625 62.25 99.5625 54.9375C99.5625 47.625 94.3125 41.6875 87.75 41.6875C81.125 41.6875 75.875 47.6875 75.9375 54.9375C75.9375 62.25 81.1875 68.1875 87.75 68.1875ZM44.1875 68.1875C50.625 68.1875 56 62.25 56 54.9375C56 47.625 50.75 41.6875 44.1875 41.6875C37.5625 41.6875 32.3125 47.6875 32.375 54.9375C32.375 62.25 37.5625 68.1875 44.1875 68.1875Z" fill="#CF944F"/>
</svg>
