<svg width="126" height="126" viewBox="0 0 126 126" fill="none" xmlns="http://www.w3.org/2000/svg">
<path d="M36.75 0.5H89.25C109.25 0.5 125.5 16.75 125.5 36.75V89.25C125.5 98.8641 121.681 108.084 114.883 114.883C108.084 121.681 98.8641 125.5 89.25 125.5H36.75C16.75 125.5 0.5 109.25 0.5 89.25V36.75C0.5 27.1359 4.31919 17.9156 11.1174 11.1174C17.9156 4.31919 27.1359 0.5 36.75 0.5ZM35.5 13C29.5326 13 23.8097 15.3705 19.5901 19.5901C15.3705 23.8097 13 29.5326 13 35.5V90.5C13 102.937 23.0625 113 35.5 113H90.5C96.4674 113 102.19 110.629 106.41 106.41C110.629 102.19 113 96.4674 113 90.5V35.5C113 23.0625 102.937 13 90.5 13H35.5ZM95.8125 22.375C97.8845 22.375 99.8716 23.1981 101.337 24.6632C102.802 26.1284 103.625 28.1155 103.625 30.1875C103.625 32.2595 102.802 34.2466 101.337 35.7118C99.8716 37.1769 97.8845 38 95.8125 38C93.7405 38 91.7534 37.1769 90.2882 35.7118C88.8231 34.2466 88 32.2595 88 30.1875C88 28.1155 88.8231 26.1284 90.2882 24.6632C91.7534 23.1981 93.7405 22.375 95.8125 22.375ZM63 31.75C71.288 31.75 79.2366 35.0424 85.0971 40.9029C90.9576 46.7634 94.25 54.712 94.25 63C94.25 71.288 90.9576 79.2366 85.0971 85.0971C79.2366 90.9576 71.288 94.25 63 94.25C54.712 94.25 46.7634 90.9576 40.9029 85.0971C35.0424 79.2366 31.75 71.288 31.75 63C31.75 54.712 35.0424 46.7634 40.9029 40.9029C46.7634 35.0424 54.712 31.75 63 31.75ZM63 44.25C58.0272 44.25 53.2581 46.2254 49.7417 49.7417C46.2254 53.2581 44.25 58.0272 44.25 63C44.25 67.9728 46.2254 72.7419 49.7417 76.2583C53.2581 79.7746 58.0272 81.75 63 81.75C67.9728 81.75 72.7419 79.7746 76.2583 76.2583C79.7746 72.7419 81.75 67.9728 81.75 63C81.75 58.0272 79.7746 53.2581 76.2583 49.7417C72.7419 46.2254 67.9728 44.25 63 44.25Z" fill="#CF944F"/>
</svg>
