<svg width="126" height="88" viewBox="0 0 126 88" fill="none" xmlns="http://www.w3.org/2000/svg">
<path d="M50.5 62.75L82.9375 44L50.5 25.25V62.75ZM122.75 13.8125C123.562 16.75 124.125 20.6875 124.5 25.6875C124.938 30.6875 125.125 35 125.125 38.75L125.5 44C125.5 57.6875 124.5 67.75 122.75 74.1875C121.187 79.8125 117.562 83.4375 111.937 85C109 85.8125 103.625 86.375 95.375 86.75C87.25 87.1875 79.8125 87.375 72.9375 87.375L63 87.75C36.8125 87.75 20.5 86.75 14.0625 85C8.4375 83.4375 4.8125 79.8125 3.25 74.1875C2.4375 71.25 1.875 67.3125 1.5 62.3125C1.0625 57.3125 0.875 53 0.875 49.25L0.5 44C0.5 30.3125 1.5 20.25 3.25 13.8125C4.8125 8.1875 8.4375 4.5625 14.0625 3C17 2.1875 22.375 1.625 30.625 1.25C38.75 0.812499 46.1875 0.625 53.0625 0.625L63 0.25C89.1875 0.25 105.5 1.25 111.937 3C117.562 4.5625 121.187 8.1875 122.75 13.8125Z" fill="#CF944F"/>
</svg>
